
<svg version="1.0" xmlns="http://www.w3.org/2000/svg" 
id="katakana-profile"
viewBox="10 0 40 400">
<g transform="translate(0.000000,300.000000) scale(0.100000,-0.100000)" fill="#FFFFF" stroke="none">
<path d="M238 2873 c-16 -2 -28 -6 -28 -8 0 -2 30 -32 66 -67 37 -35 86 -88
109 -119 50 -64 115 -178 115 -202 0 -9 4 -18 8 -21 9 -5 72 34 72 46 0 11
-100 170 -141 225 -58 75 -139 153 -158 152 -9 -1 -28 -4 -43 -6z"/>
<path d="M228 2583 c-13 -16 -35 -43 -48 -61 l-23 -34 27 -26 c26 -26 27 -27
38 -7 7 11 31 40 55 66 l43 46 -30 21 c-16 12 -31 22 -33 22 -2 0 -15 -12 -29
-27z"/>
<path d="M236 2175 c-21 -32 -20 -42 3 -50 28 -9 143 -134 182 -198 19 -31 36
-56 39 -56 3 0 13 11 23 24 19 27 23 20 -62 137 -14 19 -12 20 90 17 l104 -3
3 32 3 32 -133 0 -134 0 -44 45 c-24 25 -47 45 -51 45 -4 0 -14 -11 -23 -25z"/>
<path d="M270 1480 c0 -226 2 -252 16 -246 9 3 25 6 36 6 20 0 20 4 16 105 -4
98 -3 105 14 105 75 0 171 -58 205 -124 11 -21 18 -26 21 -16 2 8 11 23 19 32
21 24 9 51 -49 102 -51 47 -122 76 -183 76 l-31 0 0 103 1 102 -32 3 -33 3 0
-251z"/>
<path d="M140 1648 c-1 -2 -2 -78 -3 -171 l-2 -167 33 0 32 0 0 170 0 170 -30
0 c-16 0 -30 -1 -30 -2z"/>
<path d="M290 1058 c-15 -19 -14 -26 1 -72 10 -28 20 -67 24 -87 l7 -37 -52
-7 c-51 -7 -52 -7 -46 -37 3 -17 6 -34 6 -39 0 -4 15 -2 33 5 17 8 42 17 54
20 23 7 25 4 47 -97 6 -27 7 -27 36 -12 17 9 30 17 30 18 0 1 -9 26 -20 56
-12 29 -20 55 -18 56 2 1 46 12 98 25 52 12 102 24 111 26 16 5 15 49 -1 59
-7 4 -136 -27 -209 -50 -16 -5 -21 -2 -21 13 0 11 -7 38 -15 61 -8 22 -11 41
-7 41 4 0 25 -14 46 -30 41 -31 49 -30 60 7 6 19 -3 27 -62 62 -37 23 -72 41
-78 41 -5 -1 -16 -10 -24 -22z"/>
<path d="M113 518 c-25 -26 -30 -37 -22 -51 10 -16 13 -15 42 13 17 16 35 30
39 30 5 0 4 9 -2 20 -14 27 -21 25 -57 -12z"/>
<path d="M272 525 l-42 -11 45 -37 c87 -73 245 -298 245 -349 0 -28 15 -29 48
0 l32 27 -59 98 c-61 99 -146 211 -198 258 -26 23 -31 24 -71 14z"/>
<path d="M147 462 c-18 -19 -25 -35 -21 -45 8 -23 14 -21 52 14 20 18 31 36
28 45 -8 22 -30 17 -59 -14z"/>
<path d="M167 228 l-37 -63 22 -17 c26 -20 48 -23 48 -7 0 7 16 34 36 61 19
28 34 51 32 52 -23 17 -54 36 -58 36 -4 0 -23 -28 -43 -62z"/>
<path d="M322 192 c-11 -15 -27 -44 -35 -64 -15 -36 -15 -38 6 -53 26 -18 47
-19 47 -2 0 7 14 35 31 62 32 50 32 50 -13 75 -13 8 -21 4 -36 -18z"/>
</g>
</svg>
